<svg xmlns="http://www.w3.org/2000/svg" width="142.911" height="140.845" viewBox="0 0 142.911 140.845">
  <path id="Icon_weather-thunderstorm" data-name="Icon weather-thunderstorm" d="M5.556,74.289a32.941,32.941,0,0,0,6.815,20.445,34.156,34.156,0,0,0,17.761,12.322l-4.543,11.565c-.207.964.138,1.514.964,1.514H41.215l-6.746,29.6H36.4l26.985-39.583a.732.732,0,0,0,.069-.964,1.087,1.087,0,0,0-1.033-.482H47.41L64.483,76.768c.482-.964.138-1.514-.964-1.514H43.28A1.847,1.847,0,0,0,41.7,76.286L34.331,96.043a22.27,22.27,0,0,1-12.185-7.985A21.578,21.578,0,0,1,17.328,74.22a21.3,21.3,0,0,1,5.851-14.938,23.005,23.005,0,0,1,14.456-7.366l3.648-.482c.895,0,1.377-.413,1.377-1.239l.482-3.511a29.189,29.189,0,0,1,29.05-26.3A28.4,28.4,0,0,1,91.812,27.96a28.451,28.451,0,0,1,9.638,18.724l.482,3.993c0,.757.413,1.17,1.239,1.17h11.014a21.928,21.928,0,0,1,15.971,6.54,21.866,21.866,0,0,1,.551,30.909,22.822,22.822,0,0,1-15.145,7.159c-.895,0-1.377.413-1.377,1.239v9.431c0,.757.482,1.17,1.377,1.17A32.8,32.8,0,0,0,138.9,97.9a32.9,32.9,0,0,0,9.569-23.75,33.005,33.005,0,0,0-4.612-17.141,33.624,33.624,0,0,0-12.46-12.391,34.043,34.043,0,0,0-17.21-4.543h-2.134A40.135,40.135,0,0,0,97.526,17.635,40,40,0,0,0,72.193,8.892,40.446,40.446,0,0,0,46.309,17.91,40.081,40.081,0,0,0,31.853,41.04a34.03,34.03,0,0,0-26.3,33.249Zm56.035,66.843a5.11,5.11,0,0,0,3.993,5.3,4.552,4.552,0,0,1,.757.069,5.624,5.624,0,0,0,.964.069,6.237,6.237,0,0,0,3.373-1.033,5.023,5.023,0,0,0,2.2-3.3L88.37,82.412a5.879,5.879,0,0,0-.482-4.475,5.693,5.693,0,0,0-3.442-2.685c-1.17-.138-1.79-.207-1.79-.207a5.8,5.8,0,0,0-3.235,1.033,5.1,5.1,0,0,0-2.134,3.1L61.729,139.2C61.66,139.893,61.591,140.513,61.591,141.132Zm28.637-21.065a5.133,5.133,0,0,0,.688,2.616,6.99,6.99,0,0,0,3.511,3.029,8.075,8.075,0,0,0,2.065.344,4.921,4.921,0,0,0,2.2-.551,5.241,5.241,0,0,0,2.891-3.924L111.5,82.55a14.112,14.112,0,0,0,.344-1.859,5.168,5.168,0,0,0-1.1-3.1,5.908,5.908,0,0,0-3.167-2.2c-1.17-.138-1.79-.207-1.79-.207a5.485,5.485,0,0,0-3.235,1.033,5.642,5.642,0,0,0-2.065,3.1L90.435,118.553a4.089,4.089,0,0,1-.069.757A1.76,1.76,0,0,0,90.229,120.067Z" transform="translate(-5.556 -8.892)" fill="#fff"/>
</svg>
