<svg xmlns="http://www.w3.org/2000/svg" width="146.029" height="146.167" viewBox="0 0 146.029 146.167">
  <path id="Icon_weather-day-sunny" data-name="Icon weather-day-sunny" d="M5.244,77.815a5.808,5.808,0,0,1,1.719-4.263,5.941,5.941,0,0,1,4.125-1.65H25.113A5.21,5.21,0,0,1,29.1,73.621a6.459,6.459,0,0,1,.069,8.388,5.11,5.11,0,0,1-3.988,1.719H11.157a5.611,5.611,0,0,1-4.125-1.719A5.718,5.718,0,0,1,5.244,77.815ZM24.907,125.46a6.368,6.368,0,0,1,1.581-4.194l10.107-9.832a5.286,5.286,0,0,1,4.056-1.581,5.824,5.824,0,0,1,4.125,1.581,5.14,5.14,0,0,1,1.65,3.919,6.486,6.486,0,0,1-1.65,4.4l-9.763,9.763q-4.228,3.3-8.457,0A5.551,5.551,0,0,1,24.907,125.46Zm0-95.153a6.368,6.368,0,0,1,1.581-4.194,6.6,6.6,0,0,1,4.4-1.719,5.78,5.78,0,0,1,4.056,1.65l9.832,10.107a5.337,5.337,0,0,1,1.65,4.056,5.639,5.639,0,0,1-5.775,5.775,5.337,5.337,0,0,1-4.056-1.65L26.557,34.5A5.755,5.755,0,0,1,24.907,30.307ZM42.439,77.815a34.7,34.7,0,0,1,4.813-17.876A35.9,35.9,0,0,1,60.383,46.808a35.271,35.271,0,0,1,31.763-1.925,35.919,35.919,0,0,1,11.413,7.7,36.076,36.076,0,0,1,10.45,25.3A34.768,34.768,0,0,1,109.2,95.828a36.056,36.056,0,0,1-13.063,13.063,35.86,35.86,0,0,1-35.889,0A36.056,36.056,0,0,1,47.183,95.828,36.528,36.528,0,0,1,42.439,77.815Zm11.688,0a24.3,24.3,0,0,0,24.2,24.338,24.413,24.413,0,0,0,24.338-24.338,23.177,23.177,0,0,0-7.15-16.982A23.556,23.556,0,0,0,78.327,53.82a23.246,23.246,0,0,0-17.051,7.013A22.915,22.915,0,0,0,54.127,77.815ZM72.415,131.3a5.4,5.4,0,0,1,1.719-4.125,5.822,5.822,0,0,1,4.125-1.65,5.755,5.755,0,0,1,4.194,1.65A5.6,5.6,0,0,1,84.1,131.3v13.682a5.808,5.808,0,0,1-1.719,4.263,5.611,5.611,0,0,1-4.125,1.719,5.5,5.5,0,0,1-4.125-1.719,5.808,5.808,0,0,1-1.719-4.263V131.3Zm0-106.566V10.713a5.611,5.611,0,0,1,1.719-4.125A5.718,5.718,0,0,1,78.327,4.8a5.5,5.5,0,0,1,4.125,1.719,5.611,5.611,0,0,1,1.719,4.125V24.738a5.21,5.21,0,0,1-1.719,3.988,5.758,5.758,0,0,1-4.125,1.581A5.943,5.943,0,0,1,74.2,28.726,5.41,5.41,0,0,1,72.415,24.738Zm37.951,90.615a5.4,5.4,0,0,1,5.431-5.431,5.824,5.824,0,0,1,4.125,1.581l10.038,9.832a5.984,5.984,0,0,1,1.65,4.194,5.551,5.551,0,0,1-1.65,4.056,6.122,6.122,0,0,1-8.25,0l-9.763-9.763A6.693,6.693,0,0,1,110.366,115.353Zm0-75.077a5.33,5.33,0,0,1,1.581-4.056l9.763-10.107a5.78,5.78,0,0,1,4.056-1.65,5.4,5.4,0,0,1,4.125,1.719,5.611,5.611,0,0,1,1.719,4.125,5.8,5.8,0,0,1-1.65,4.263L119.922,44.4a6.063,6.063,0,0,1-4.125,1.65,4.993,4.993,0,0,1-3.85-1.65A5.824,5.824,0,0,1,110.366,40.276ZM125.9,77.815a6.148,6.148,0,0,1,1.65-4.263,5.354,5.354,0,0,1,3.919-1.65h13.888a5.835,5.835,0,0,1,4.125,10.038,5.611,5.611,0,0,1-4.125,1.719H131.473a5.11,5.11,0,0,1-3.988-1.719A5.943,5.943,0,0,1,125.9,77.815Z" transform="translate(-5.244 -4.8)" fill="#fff"/>
</svg>
