<svg xmlns="http://www.w3.org/2000/svg" width="664.186" height="567.562" viewBox="0 0 664.186 567.562">
            <g id="Ресурс_1" data-name="Ресурс 1" transform="translate(209.414 5.22)" opacity="0.1">
                <g id="Layer_1" data-name="Layer 1" transform="translate(-10 13)">
                <g id="Group_2" data-name="Group 2">
                    <path id="Path_44" data-name="Path 44" d="M91.506,92.411h0c3.575-4.778,9.368-4.778,12.943,0l46.05,61.6a15.329,15.329,0,0,1,0,17.314h0c-3.575,4.778-9.368,4.778-12.943,0l-46.05-61.6a15.329,15.329,0,0,1,0-17.314Z" transform="translate(111.494 302.668)" fill="#ffdc7b"/>
                    <path id="Path_91" data-name="Path 91" d="M91.506,92.411h0c3.575-4.778,9.368-4.778,12.943,0l46.05,61.6a15.329,15.329,0,0,1,0,17.314h0c-3.575,4.778-9.368,4.778-12.943,0l-46.05-61.6a15.329,15.329,0,0,1,0-17.314Z" transform="matrix(0.174, 0.985, -0.985, 0.174, 357.149, -41.407)" fill="#ffdc7b"/>
                    <path id="Path_92" data-name="Path 92" d="M91.506,92.411h0c3.575-4.778,9.368-4.778,12.943,0l46.05,61.6a15.329,15.329,0,0,1,0,17.314h0c-3.575,4.778-9.368,4.778-12.943,0l-46.05-61.6a15.329,15.329,0,0,1,0-17.314Z" transform="matrix(0.174, 0.985, -0.985, 0.174, 17.282, 299.618)" fill="#ffdc7b"/>
                    <path id="Path_90" data-name="Path 90" d="M91.506,92.411h0c3.575-4.778,9.368-4.778,12.943,0l46.05,61.6a15.329,15.329,0,0,1,0,17.314h0c-3.575,4.778-9.368,4.778-12.943,0l-46.05-61.6a15.329,15.329,0,0,1,0-17.314Z" transform="translate(-212.774 -27.332)" fill="#ffdc7b"/>
                    <path id="Path_86" data-name="Path 86" d="M91.519,92.411h0c3.592-4.778,9.413-4.778,13.005,0l46.271,61.6a15.269,15.269,0,0,1,0,17.314h0c-3.593,4.778-9.413,4.778-13.006,0l-46.271-61.6a15.269,15.269,0,0,1,0-17.314Z" transform="matrix(0.616, -0.788, 0.788, 0.616, 123.812, 279.848)" fill="#ffdc7b"/>
                    <path id="Path_88" data-name="Path 88" d="M91.519,92.411h0c3.592-4.778,9.413-4.778,13.005,0l46.271,61.6a15.269,15.269,0,0,1,0,17.314h0c-3.593,4.778-9.413,4.778-13.006,0l-46.271-61.6a15.269,15.269,0,0,1,0-17.314Z" transform="matrix(0.616, -0.788, 0.788, 0.616, -324.098, 279.848)" fill="#ffdc7b"/>
                    <path id="Path_87" data-name="Path 87" d="M91.519,92.411h0c3.592-4.778,9.413-4.778,13.005,0l46.271,61.6a15.269,15.269,0,0,1,0,17.314h0c-3.593,4.778-9.413,4.778-13.006,0l-46.271-61.6a15.269,15.269,0,0,1,0-17.314Z" transform="matrix(-0.799, -0.602, 0.602, -0.799, 95.762, 213.84)" fill="#ffdc7b"/>
                    <path id="Path_89" data-name="Path 89" d="M91.519,92.411h0c3.592-4.778,9.413-4.778,13.005,0l46.271,61.6a15.269,15.269,0,0,1,0,17.314h0c-3.593,4.778-9.413,4.778-13.006,0l-46.271-61.6a15.269,15.269,0,0,1,0-17.314Z" transform="matrix(-0.799, -0.602, 0.602, -0.799, 95.762, 673.74)" fill="#ffdc7b"/>
                    <ellipse id="Ellipse_8" data-name="Ellipse 8" cx="148.975" cy="155.975" rx="148.975" ry="155.975" transform="translate(-70.613 109.586)" fill="#ffdc7b"/>
                    <path id="Path_46" data-name="Path 46" d="M444.676,246.218h-.661c14.063-37.719,5.332-81.673-21.539-108.435s-65.621-30.1-95.6-8.225C305.739,68.595,248.837,35.405,194.085,52.1s-90.254,78.069-82.853,143.221H110.3c-41.667-.016-75.446,39.2-75.446,87.567s33.778,87.583,75.446,87.583l334.38-.016c19.4.511,37.522-11.213,47.353-30.638a70.832,70.832,0,0,0,0-62.933c-9.831-19.426-27.951-31.149-47.353-30.638Z" transform="translate(-34.63 178.867)" fill="#fff"/>
                </g>
                </g>
            </g>
            </svg>