<svg xmlns="http://www.w3.org/2000/svg" width="780.199" height="585.149" viewBox="0 0 780.199 585.149">
  <path id="Icon_metro-weather3" data-name="Icon metro-weather3" d="M53.777,298.359a123.281,123.281,0,0,1-2.444-24.381A121.7,121.7,0,0,1,219.622,161.341C251.971,98.23,316.922,54.547,392.67,54.547s140.7,43.684,173.017,106.794A121.811,121.811,0,0,1,731.531,298.359h48.762c1.207-8.032,2.476-16.032,2.476-24.381,0-94.1-76.572-170.669-170.669-170.669a169.087,169.087,0,0,0-24.064,1.714A241.727,241.727,0,0,0,392.67,5.784c-78,0-149.81,37.207-195.367,99.239a169.089,169.089,0,0,0-24.064-1.714c-94.1,0-170.669,76.572-170.669,170.669,0,8.349,1.3,16.349,2.476,24.381Zm704.611,48.762H26.952a24.381,24.381,0,1,0,0,48.762H758.389a24.381,24.381,0,1,0,0-48.762Zm0,97.525H26.952a24.381,24.381,0,1,0,0,48.762H758.389a24.381,24.381,0,1,0,0-48.762Zm0,97.525H26.952a24.381,24.381,0,1,0,0,48.762H758.389a24.381,24.381,0,1,0,0-48.762Z" transform="translate(-2.571 -5.784)" fill="#1e212a" opacity="0.1"/>
</svg>
