<svg xmlns="http://www.w3.org/2000/svg" width="846.701" height="847.498" viewBox="0 0 846.701 847.498">
  <path id="Icon_weather-day-sunny" data-name="Icon weather-day-sunny" d="M5.244,428.151c0-9.567,3.189-17.939,9.966-24.715a34.445,34.445,0,0,1,23.918-9.567H120.45a30.209,30.209,0,0,1,23.121,9.966,35.443,35.443,0,0,1,9.169,24.317c0,9.567-2.79,17.54-8.77,24.317s-13.952,9.966-23.121,9.966H39.527a32.531,32.531,0,0,1-23.918-9.966C8.832,445.69,5.244,437.718,5.244,428.151ZM119.254,704.4c0-9.169,3.189-17.141,9.169-24.317l58.6-57c5.98-6.378,13.952-9.169,23.519-9.169a33.766,33.766,0,0,1,23.918,9.169q9.567,8.969,9.567,22.722a37.607,37.607,0,0,1-9.567,25.513l-56.606,56.606q-24.516,19.134-49.032,0A32.183,32.183,0,0,1,119.254,704.4Zm0-551.711c0-9.169,3.189-17.141,9.169-24.317,7.973-6.777,16.344-9.966,25.513-9.966a33.512,33.512,0,0,1,23.519,9.567l57,58.6c6.378,5.98,9.567,13.952,9.567,23.519s-3.189,17.54-9.567,23.918-14.351,9.567-23.918,9.567-17.54-3.189-23.519-9.567l-58.2-57C122.443,170.632,119.254,162.261,119.254,152.694ZM220.906,428.151c0-37.073,9.169-71.754,27.9-103.645s43.85-57.4,76.139-76.139A204.509,204.509,0,0,1,509.119,237.2c25.513,11.162,47.836,25.911,66.173,44.647a209.175,209.175,0,0,1,60.593,146.7c0,37.472-9.169,72.153-27.9,104.044a209.06,209.06,0,0,1-75.741,75.741c-31.891,18.736-66.572,27.9-104.044,27.9s-72.153-9.169-104.044-27.9a209.06,209.06,0,0,1-75.741-75.741C230.473,500.3,220.906,465.622,220.906,428.151Zm67.768,0c0,39.066,13.554,72.153,41.059,99.659,27.107,27.506,60.194,41.458,99.26,41.458s72.153-13.952,99.659-41.458,41.458-60.593,41.458-99.659c0-38.269-13.952-70.957-41.458-98.463-27.506-27.107-60.593-40.661-99.659-40.661-38.668,0-71.754,13.554-98.862,40.661C302.227,357.194,288.674,389.882,288.674,428.151ZM394.711,738.289c0-9.567,3.189-17.54,9.966-23.918a33.757,33.757,0,0,1,23.918-9.567c9.567,0,17.939,3.189,24.317,9.567s9.567,14.351,9.567,23.918v79.328c0,9.567-3.189,17.939-9.966,24.715a32.531,32.531,0,0,1-23.918,9.966c-9.169,0-17.54-3.189-23.918-9.966-6.777-6.777-9.966-15.148-9.966-24.715V738.289Zm0-617.884V39.083a32.531,32.531,0,0,1,9.966-23.918C411.453,8.388,419.426,4.8,428.993,4.8a31.911,31.911,0,0,1,23.918,9.966,32.531,32.531,0,0,1,9.966,23.918V120.4a30.209,30.209,0,0,1-9.966,23.121c-6.777,6.378-14.75,9.169-23.918,9.169a34.457,34.457,0,0,1-23.918-9.169A31.371,31.371,0,0,1,394.711,120.4Zm220.046,525.4c0-9.169,3.189-16.743,9.169-22.324,5.98-6.378,13.554-9.169,22.324-9.169a33.767,33.767,0,0,1,23.918,9.169l58.2,57a34.7,34.7,0,0,1,9.567,24.317,32.183,32.183,0,0,1-9.567,23.519q-23.918,18.536-47.836,0l-56.606-56.606A38.81,38.81,0,0,1,614.757,645.805Zm0-435.31c0-9.966,3.189-17.939,9.169-23.52l56.606-58.6a33.512,33.512,0,0,1,23.519-9.567c9.567,0,17.54,3.189,23.918,9.966a32.531,32.531,0,0,1,9.966,23.918c0,9.966-3.189,18.337-9.567,24.715l-58.2,57q-10.763,9.567-23.918,9.567a28.951,28.951,0,0,1-22.324-9.567A33.765,33.765,0,0,1,614.757,210.5Zm90.092,217.655a35.649,35.649,0,0,1,9.567-24.715,31.041,31.041,0,0,1,22.722-9.567h80.524c9.169,0,17.141,3.588,23.918,10.365s10.365,14.749,10.365,23.918-3.588,17.141-10.365,23.918a32.531,32.531,0,0,1-23.918,9.966H737.138c-9.169,0-17.141-3.189-23.121-9.966A34.456,34.456,0,0,1,704.849,428.151Z" transform="translate(-5.244 -4.8)" fill="#1e212a" opacity="0.1" style="mix-blend-mode: overlay;isolation: isolate"/>
</svg>
