<svg xmlns="http://www.w3.org/2000/svg" width="143.801" height="107.851" viewBox="0 0 143.801 107.851">
  <path id="Icon_metro-weather3" data-name="Icon metro-weather3" d="M12.009,59.709a22.722,22.722,0,0,1-.45-4.494,22.431,22.431,0,0,1,31.018-20.76,35.678,35.678,0,0,1,63.784,0,22.451,22.451,0,0,1,30.567,25.254h8.988a29.974,29.974,0,0,0,.456-4.494,31.5,31.5,0,0,0-31.456-31.456,31.165,31.165,0,0,0-4.435.316,44.59,44.59,0,0,0-72.017,0,31.165,31.165,0,0,0-4.435-.316A31.5,31.5,0,0,0,2.571,55.216a30.766,30.766,0,0,0,.456,4.494ZM141.878,68.7H7.064a4.494,4.494,0,1,0,0,8.988H141.878a4.494,4.494,0,0,0,0-8.988Zm0,17.975H7.064a4.494,4.494,0,1,0,0,8.988H141.878a4.494,4.494,0,1,0,0-8.988Zm0,17.975H7.064a4.494,4.494,0,1,0,0,8.988H141.878a4.494,4.494,0,1,0,0-8.988Z" transform="translate(-2.571 -5.784)" fill="#fff"/>
</svg>
